<?xml version="1.0" encoding="UTF-8" standalone="no"?><!DOCTYPE svg PUBLIC "-//W3C//DTD SVG 1.1//EN" "http://www.w3.org/Graphics/SVG/1.1/DTD/svg11.dtd"><svg width="100%" height="100%" viewBox="0 0 144 144" version="1.1" xmlns="http://www.w3.org/2000/svg" xmlns:xlink="http://www.w3.org/1999/xlink" xml:space="preserve" xmlns:serif="http://www.serif.com/" style="fill-rule:evenodd;clip-rule:evenodd;stroke-linejoin:round;stroke-miterlimit:1.41421;"><g id="Vrstva-1" serif:id="Vrstva 1"><path d="M77.298,17.818c9.61,4.249 13.51,11.342 13.51,11.342c-6.008,-16.55 -24.299,-25.093 -40.85,-19.083l20.572,18.967l-8.536,-12.036c0,0 6.453,-3.101 15.304,0.81" style="fill:#4faccc;fill-rule:nonzero;"/><path d="M43.728,63.827c-9.609,-4.247 -13.513,-11.341 -13.513,-11.341c6.011,16.55 24.3,25.096 40.85,19.084l-1.464,-41.514l-10.571,34.582c0,0 -6.453,3.102 -15.302,-0.811" style="fill:#efc54a;fill-rule:nonzero;"/><path d="M37.549,24.45c4.249,-9.609 11.344,-13.512 11.344,-13.512c-16.551,6.011 -25.095,24.302 -19.085,40.851l38.085,-21.786l-31.154,9.75c0,0 -3.1,-6.453 0.81,-15.303" style="fill:#a4d24f;fill-rule:nonzero;"/><path d="M24.573,109.466c-1.274,2.586 -1.948,3.975 -3.298,7.086c-3.487,-0.04 -3.712,-0.04 -4.348,-0.04c-0.75,0 -1.087,0 -4.312,0.04c2.025,-3.488 2.699,-4.723 7.386,-13.609c3.971,-7.534 4.499,-8.545 5.809,-11.394c3.262,0.035 3.785,0.035 5.135,0.035c1.5,0 1.875,0 4.349,-0.035c2.062,5.922 2.062,5.997 4.424,12.331c1.087,2.926 2.174,5.811 3.298,8.884c0.375,1.048 0.6,1.611 1.462,3.788c-3.186,-0.04 -3.449,-0.04 -4.123,-0.04c-0.788,0 -1.087,0 -4.236,0.04c-0.375,-1.501 -1.426,-4.648 -2.326,-7.086l-9.22,0Zm7.91,-5.323c-1.124,-3.449 -1.913,-5.811 -2.325,-7.158c-1.35,3.034 -1.387,3.109 -3.373,7.158l5.698,0Z" style="fill:#1a171b;fill-rule:nonzero;"/><path d="M65.731,116.552c-4.572,-0.04 -5.66,-0.04 -9.483,-0.04c-3.975,0 -4.873,0 -10.009,0.04c0.825,-7.009 1.387,-17.056 1.426,-25.003c2.584,0.036 3.035,0.036 4.122,0.036c1.125,0 1.462,0 4.011,-0.036c-0.488,7.383 -0.824,13.868 -1.05,19.529c2.063,0.075 3.187,0.075 4.236,0.075c2.887,0 5.247,-0.038 7.159,-0.152l-0.074,0.94c-0.112,1.234 -0.188,2.249 -0.225,3.035l-0.038,0.787l-0.075,0.789Z" style="fill:#1a171b;fill-rule:nonzero;"/><path d="M69.667,91.548c3.187,0.037 3.41,0.037 4.085,0.037c0.562,0 0.899,0 4.049,-0.037c-0.038,0.863 -0.112,2.024 -0.151,2.661c-0.748,11.022 -0.936,15.334 -1.123,22.342c-3.6,-0.039 -3.6,-0.039 -4.049,-0.039c-0.45,0 -0.75,0 -4.123,0.039c0.637,-6.259 1.312,-18.406 1.312,-23.879l0,-1.124Zm20.354,24.964c-0.601,0 -1.051,0 -4.684,0.039c-1.539,-2.885 -4.163,-7.311 -7.798,-13.195c5.246,-7.085 6.934,-9.447 8.433,-11.808c3.711,0.037 3.749,0.037 4.423,0.037c0.153,0 2.325,0 4.572,-0.037c-1.048,1.274 -1.685,2.098 -4.683,5.846c-1.8,2.251 -2.887,3.674 -4.499,5.887c1.949,3.111 2.886,4.46 8.997,13.27l-4.761,-0.039Z" style="fill:#1a171b;fill-rule:nonzero;"/><path d="M105.725,109.466c-1.272,2.586 -1.947,3.975 -3.297,7.086c-3.487,-0.04 -3.709,-0.04 -4.346,-0.04c-0.753,0 -1.088,0 -4.313,0.04c2.025,-3.488 2.699,-4.723 7.384,-13.609c3.974,-7.534 4.499,-8.545 5.812,-11.394c3.26,0.035 3.782,0.035 5.133,0.035c1.501,0 1.874,0 4.349,-0.035c2.063,5.922 2.063,5.997 4.423,12.331c1.088,2.926 2.174,5.811 3.299,8.884c0.374,1.048 0.6,1.611 1.462,3.788c-3.185,-0.04 -3.449,-0.04 -4.123,-0.04c-0.786,0 -1.087,0 -4.236,0.04c-0.375,-1.501 -1.426,-4.648 -2.325,-7.086l-9.222,0Zm7.911,-5.323c-1.124,-3.449 -1.912,-5.811 -2.325,-7.158c-1.35,3.034 -1.386,3.109 -3.373,7.158l5.698,0Z" style="fill:#1a171b;fill-rule:nonzero;"/><path d="M17.275,124.042c0.495,0.015 0.569,0.015 0.705,0.015c0.151,0 0.211,0 0.72,-0.015c0.705,2.474 1.874,6.328 2.668,8.774c0.795,-1.639 1.425,-3.014 2.146,-4.727c-0.527,-1.646 -0.811,-2.502 -1.351,-4.047c0.494,0.015 0.555,0.015 0.705,0.015c0.151,0 0.21,0 0.719,-0.015c0.271,1.036 0.39,1.425 0.721,2.445c0.329,-0.721 0.554,-1.262 0.99,-2.445c0.508,0.015 0.569,0.015 0.734,0.015c0.164,0 0.224,0 0.719,-0.015c-0.78,1.619 -1.139,2.368 -1.889,4.065c0.48,1.707 0.9,3.028 1.485,4.709c1.109,-2.402 2.834,-6.329 3.839,-8.774c0.509,0.015 0.569,0.015 0.718,0.015c0.134,0 0.195,0 0.705,-0.015c-1.41,2.923 -3.358,7.196 -4.603,10.002c-0.285,-0.015 -0.405,-0.015 -0.764,-0.015c-0.346,0 -0.465,0 -0.75,0.015c-0.449,-1.5 -0.899,-2.896 -1.409,-4.333c-0.751,1.512 -1.349,2.787 -2.024,4.333c-0.301,-0.015 -0.407,-0.015 -0.781,-0.015c-0.359,0 -0.478,0 -0.764,0.015c-0.809,-2.685 -2.265,-7.185 -3.239,-10.002" style="fill:#1a171b;fill-rule:nonzero;"/><path d="M38.671,124.042c0.63,0.015 0.63,0.015 0.735,0.015c0.044,0 0.149,0 0.72,-0.015c-0.149,1.964 -0.3,6.16 -0.36,10.002c-0.645,-0.015 -0.645,-0.015 -0.705,-0.015c-0.074,0 -0.179,0 -0.765,0.015c0.209,-3.029 0.375,-7.306 0.375,-9.431l0,-0.571Z" style="fill:#1a171b;fill-rule:nonzero;"/><path d="M48.417,124.042c0.495,0.015 0.584,0.015 0.735,0.015c0.165,0 0.256,0 0.719,-0.015c-0.148,2.563 -0.359,7.06 -0.403,9.027c0.779,0.015 1.424,0.015 1.768,0.015c1.439,0 2.235,-0.015 3.029,-0.061c-0.044,0.436 -0.044,0.496 -0.076,1.021c-1.784,-0.015 -2.203,-0.015 -2.923,-0.015c-0.659,0 -1.005,0 -3.283,0.015c0.224,-2.491 0.405,-6.629 0.434,-10.002" style="fill:#1a171b;fill-rule:nonzero;"/><path d="M63.861,134.044c-0.435,-0.018 -0.735,-0.018 -0.945,-0.018c-0.18,0 -0.269,0 -1.513,0.018c0.239,-2.998 0.433,-7.528 0.433,-9.851l0,-0.151c1.095,0.015 1.185,0.015 1.484,0.015c0.375,0 0.375,0 1.65,-0.015c0.36,-0.016 0.764,-0.016 0.93,-0.016c1.858,0 2.864,0.302 3.672,1.081c0.84,0.807 1.29,2.024 1.29,3.465c0,1.62 -0.554,3.087 -1.529,4.062c-0.99,1.003 -2.293,1.41 -4.438,1.41l-1.034,0Zm-1.051,-0.975c0.856,0.016 1.185,0.016 1.68,0.016c2.083,0 3.074,-0.315 3.913,-1.275c0.721,-0.809 1.11,-1.935 1.11,-3.238c0,-1.111 -0.299,-2.012 -0.884,-2.658c-0.631,-0.689 -1.394,-0.927 -2.999,-0.927c-0.646,0 -1.41,0 -2.489,0.016l-0.331,8.066Z" style="fill:#1a171b;fill-rule:nonzero;"/><path d="M78.841,124.042c0.491,0.015 0.582,0.015 0.732,0.015c0.165,0 0.255,0 0.721,-0.015c-0.15,2.563 -0.36,7.06 -0.406,9.027c0.78,0.015 1.426,0.015 1.77,0.015c1.44,0 2.235,-0.015 3.03,-0.061c-0.045,0.436 -0.045,0.496 -0.074,1.021c-1.786,-0.015 -2.206,-0.015 -2.927,-0.015c-0.66,0 -1.004,0 -3.283,0.015c0.225,-2.491 0.407,-6.629 0.437,-10.002" style="fill:#1a171b;fill-rule:nonzero;"/><path d="M92.2,124.042c0.627,0.015 0.627,0.015 0.733,0.015c0.046,0 0.149,0 0.72,-0.015c-0.15,1.964 -0.298,6.16 -0.359,10.002c-0.645,-0.015 -0.645,-0.015 -0.705,-0.015c-0.076,0 -0.18,0 -0.764,0.015c0.208,-3.029 0.375,-7.306 0.375,-9.431l0,-0.571Z" style="fill:#1a171b;fill-rule:nonzero;"/><path d="M101.554,134.044c0.15,-1.516 0.345,-6.882 0.36,-10.002c1.874,0.015 2.309,0.015 3.149,0.015c0.868,0 1.229,0 3.03,-0.015c-0.046,0.555 -0.061,0.721 -0.061,1.021c-0.794,-0.046 -1.335,-0.06 -2.625,-0.06c-0.435,0 -1.095,0 -2.143,0.014l-0.121,3.461c0.96,0.019 1.56,0.034 1.875,0.034c0.749,0 1.753,-0.015 2.429,-0.034c-0.031,0.423 -0.045,0.632 -0.045,1.006c-1.201,-0.031 -1.545,-0.031 -2.266,-0.031c-0.643,0 -0.913,0 -2.038,0.031c-0.06,1.861 -0.089,2.969 -0.089,4.56c-0.436,-0.018 -0.659,-0.018 -0.705,-0.018c-0.059,0 -0.226,0 -0.465,0.018l-0.285,0Z" style="fill:#1a171b;fill-rule:nonzero;"/><path d="M117.882,133.085c2.099,0 3.103,-0.017 4.183,-0.076c-0.046,0.374 -0.058,0.703 -0.074,1.035c-1.679,-0.014 -2.022,-0.014 -3.029,-0.014c-1.035,0 -1.29,0 -3.432,0.014c0.208,-2.401 0.418,-7.604 0.418,-10.002c1.754,0.014 2.234,0.014 3.268,0.014c1.035,0 1.439,0 3.194,-0.014c-0.014,0.223 -0.059,0.794 -0.059,1.02c-0.871,-0.044 -1.231,-0.06 -2.55,-0.06c-1.289,0 -1.559,0 -2.503,0.016l-0.135,3.433c1.184,0.03 1.349,0.03 1.98,0.03c0.764,0 1.035,0 2.593,-0.03c-0.045,0.405 -0.045,0.6 -0.075,1.002l-0.525,0l-2.099,-0.011c-0.419,0 -0.571,0 -1.935,0.027l-0.134,3.616l0.914,0Z" style="fill:#1a171b;fill-rule:nonzero;"/><path d="M100.284,25.564c7.908,-1.094 9.046,-1.013 9.046,-1.013c0,0 -0.693,-3.593 -8.715,-3.55c-5.184,-2.251 -9.45,-2.025 -10.358,5.921c-0.521,4.548 4.056,7.703 -3.027,15.419c-14.716,16.029 -10.83,22.983 -14.73,29.371c-0.539,0.887 -0.942,1.607 -1.244,2.2c-0.02,-0.002 -0.04,-0.002 -0.06,-0.003l-0.01,0.144c-1.263,2.542 -0.494,2.555 0.038,2.361c1.982,0.128 3.953,0.04 5.891,-0.26c0.922,1.681 2.527,3.943 4.52,4.088c3.196,0.23 10.044,0.728 6.171,-0.723c-3.872,-1.45 -5.43,-1.062 -7.489,-2.215c-0.723,-0.404 -1.439,-0.89 -2.066,-1.353c4.742,-0.94 9.242,-3.145 13.1,-6.483c6.431,-5.559 10.486,-13.828 11.13,-22.687c0.504,-6.966 -1.118,-13.905 -4.589,-19.695c0.514,-0.834 1.267,-1.365 2.392,-1.522m-0.296,21.037c-0.595,8.201 -4.339,15.85 -10.272,20.98c-4.542,3.927 -10.046,6.137 -15.742,6.371c3.103,-3.878 7.468,-11.383 12.245,-15.007c11.787,-8.939 9.917,-21.505 10.708,-28.404c2.389,4.874 3.469,10.454 3.061,16.06m-2.305,-23.463c-2.667,-1.597 -0.226,-2.168 0.74,-1.911c0.966,0.258 2.491,0.508 2.091,1.274c-0.929,1.788 -1.922,1.181 -2.831,0.637" style="fill:#1a171b;fill-rule:nonzero;"/></g></svg>